# xmcd
#
# Track frame offsets: 
#        150
#        1154
#        19804
#        33049
#        49094
#        67507
#        90887
#        108709
#        119828
#        132193
#        147919
#        159348
#        175132
#        190421
#        204707
#
# Disc length: 3013 seconds
#
# Revision: 1
# Processed by: cddbd v1.5.2PL0 Copyright (c) Steve Scherf et al.
# Submitted via: ExactAudioCopy v1.3
#
DISCID=c00bc30f
DTITLE=Guto e Nando - Guto e Nando 100% Rodeio  Vai tremer o chão
DYEAR=2007
DGENRE=sertanejo coutry
TTITLE0=ABERTURA - locução
TTITLE1=100% Rodeio
TTITLE2=Cowboy solteiro
TTITLE3=Quando o amor se vai
TTITLE4=Ela é show
TTITLE5=Tô nem  aí
TTITLE6=A força de uma paixão
TTITLE7=A casa ficou pequena
TTITLE8=Digui lay
TTITLE9=Bar em bar
TTITLE10=Virou mania
TTITLE11=Comitiva coração
TTITLE12=Ribeirão a miami
TTITLE13=Vai tremer o chão
TTITLE14=Pout pourri (To indo buscar - Ela é Show)
EXTD=
EXTT0=
EXTT1=
EXTT2=
EXTT3=
EXTT4=
EXTT5=
EXTT6=
EXTT7=
EXTT8=
EXTT9=
EXTT10=
EXTT11=
EXTT12=
EXTT13=
EXTT14=
PLAYORDER=
